<?xml version="1.0"?>
<svg xmlns="http://www.w3.org/2000/svg" viewBox="0 0 64 64" width="512" height="512"><g id="outline"><path d="M28,6a4,4,0,1,0,4-4A4,4,0,0,0,28,6Zm6,0a2,2,0,1,1-2-2A2,2,0,0,1,34,6Z"/><path d="M15,30a4,4,0,1,0-4,4A4,4,0,0,0,15,30ZM9,30a2,2,0,1,1,2,2A2,2,0,0,1,9,30Z"/><path d="M49,30a4,4,0,1,0,4-4A4,4,0,0,0,49,30Zm4-2a2,2,0,1,1-2,2A2,2,0,0,1,53,28Z"/><path d="M58,36H48a3.975,3.975,0,0,0-3.092,1.494l-4.746-4.746A8.9,8.9,0,0,0,37,21.548v-.719A3,3,0,0,0,41,18V16a4,4,0,0,0-4-4H27a4,4,0,0,0-4,4v1.889a3,3,0,0,0,4,2.939v.72a8.9,8.9,0,0,0-3.162,11.2l-4.746,4.746A3.975,3.975,0,0,0,16,36H6a4,4,0,0,0-4,4v1.889A3.087,3.087,0,0,0,4.505,44.96,3.057,3.057,0,0,0,6,44.828v.72A8.982,8.982,0,1,0,19.037,57H44.963A8.983,8.983,0,1,0,58,45.548v-.719A3,3,0,0,0,62,42V40A4,4,0,0,0,58,36ZM44.054,39.468A3.9,3.9,0,0,0,44,40v1.889a3.159,3.159,0,0,0,.118.815l-6.6-6.6A8.755,8.755,0,0,0,39.1,34.518Zm-17.409-20.7a.994.994,0,0,1-.819.222,1.086,1.086,0,0,1-.826-1.1V16a2,2,0,0,1,2-2H37a2,2,0,0,1,2,2v2a1,1,0,0,1-2,0V16H35V29a1,1,0,0,1-2,0V21H31v8a1,1,0,0,1-2,0V16H27v2A1.009,1.009,0,0,1,26.645,18.763ZM27,24.11V29a3,3,0,0,0,5,2.234A3,3,0,0,0,37,29V24.11A7,7,0,0,1,39,29a7.012,7.012,0,0,1-3.55,6.084,7.06,7.06,0,0,1-6.912-.006A7.019,7.019,0,0,1,25,29,7,7,0,0,1,27,24.11ZM19.946,39.468,24.9,34.517A8.755,8.755,0,0,0,26.482,36.1l-6.563,6.562A2.926,2.926,0,0,0,20,42V40A3.9,3.9,0,0,0,19.946,39.468ZM17.493,55.624A7,7,0,1,1,6,48.11V53a3,3,0,0,0,5,2.234A3,3,0,0,0,16,53V48.125a7,7,0,0,1,1.947,3.995,7.112,7.112,0,0,1-.454,3.5ZM16,45.542v-.713A3,3,0,0,0,17,45a2.926,2.926,0,0,0,.666-.081L16.6,45.982C16.41,45.826,16.208,45.681,16,45.542ZM18,42a1,1,0,0,1-2,0V40H14V53a1,1,0,0,1-2,0V45H10v8a1,1,0,0,1-2,0V40H6v2a1.009,1.009,0,0,1-.355.767.993.993,0,0,1-.819.222A1.086,1.086,0,0,1,4,41.889V40a2,2,0,0,1,2-2H16a2,2,0,0,1,2,2Zm1.766,13A8.975,8.975,0,0,0,20,53H44a8.982,8.982,0,0,0,.234,2Zm24.465-4H19.769a9.022,9.022,0,0,0-1.749-3.606L28.252,37.162a8.8,8.8,0,0,0,7.5,0L45.98,47.4A9.031,9.031,0,0,0,44.231,51ZM60,53a7,7,0,0,1-13.491,2.63A7.083,7.083,0,0,1,46,53a7.178,7.178,0,0,1,.052-.875,7.006,7.006,0,0,1,1.948-4V53a3,3,0,0,0,5,2.234A3,3,0,0,0,58,53V48.11A7,7,0,0,1,60,53ZM46.327,44.913c.06.014.117.037.178.047A3.057,3.057,0,0,0,48,44.828v.714c-.208.139-.41.284-.6.44ZM60,42a1,1,0,0,1-2,0V40H56V53a1,1,0,0,1-2,0V45H52v8a1,1,0,0,1-2,0V40H48v2a1.009,1.009,0,0,1-.355.767.994.994,0,0,1-.819.222,1.086,1.086,0,0,1-.826-1.1V40a2,2,0,0,1,2-2H58a2,2,0,0,1,2,2Z"/></g></svg>
